<mxfile host="app.diagrams.net" modified="2023-07-26T19:26:41.412Z" agent="Mozilla/5.0 (Windows NT 10.0; Win64; x64) AppleWebKit/537.36 (KHTML, like Gecko) Chrome/114.0.0.0 Safari/537.36" etag="vTXCVVWuImcbBw4-cWus" version="21.6.5" type="device">
  <diagram name="Página-1" id="dG00mdZPdMtr62z00cmZ">
    <mxGraphModel dx="724" dy="361" grid="0" gridSize="10" guides="1" tooltips="1" connect="1" arrows="1" fold="1" page="1" pageScale="1" pageWidth="827" pageHeight="1169" background="#FFFFFF" math="0" shadow="0">
      <root>
        <mxCell id="0" />
        <mxCell id="1" parent="0" />
        <mxCell id="wiHUEbu9_wPqcJig13ah-1" value="Você deverá criar a modelagem para o catálogo de filmes, observando a seguinte situação:&#xa;&#xa;&#xa;- um filme possui apenas um único gênero.&#xa;- um gênero pode definir mais de um filme." style="text;whiteSpace=wrap;fontColor=#000000;labelBackgroundColor=none;strokeColor=none;" parent="1" vertex="1">
          <mxGeometry x="304" y="35" width="316" height="100" as="geometry" />
        </mxCell>
        <mxCell id="zO5dkgNFRGk9Y2NztJr0-5" value="" style="group;strokeColor=none;fontColor=#000000;" parent="1" vertex="1" connectable="0">
          <mxGeometry x="80" y="205" width="255" height="338" as="geometry" />
        </mxCell>
        <mxCell id="wiHUEbu9_wPqcJig13ah-2" value="Possui" style="rhombus;whiteSpace=wrap;html=1;fontColor=#000000;fillColor=none;labelBorderColor=none;strokeColor=#000000;labelBackgroundColor=none;" parent="zO5dkgNFRGk9Y2NztJr0-5" vertex="1">
          <mxGeometry x="20" y="141" width="80" height="80" as="geometry" />
        </mxCell>
        <mxCell id="wiHUEbu9_wPqcJig13ah-3" value="Filme" style="rounded=0;whiteSpace=wrap;html=1;fontColor=#000000;fillColor=none;labelBorderColor=none;strokeColor=#000000;labelBackgroundColor=none;" parent="zO5dkgNFRGk9Y2NztJr0-5" vertex="1">
          <mxGeometry y="28" width="120" height="60" as="geometry" />
        </mxCell>
        <mxCell id="wiHUEbu9_wPqcJig13ah-6" style="edgeStyle=orthogonalEdgeStyle;rounded=0;orthogonalLoop=1;jettySize=auto;html=1;entryX=0.5;entryY=1;entryDx=0;entryDy=0;fontColor=#000000;labelBorderColor=none;strokeColor=#000000;labelBackgroundColor=none;" parent="zO5dkgNFRGk9Y2NztJr0-5" source="wiHUEbu9_wPqcJig13ah-2" target="wiHUEbu9_wPqcJig13ah-3" edge="1">
          <mxGeometry relative="1" as="geometry" />
        </mxCell>
        <mxCell id="wiHUEbu9_wPqcJig13ah-4" value="Gênero" style="rounded=0;whiteSpace=wrap;html=1;fontColor=#000000;fillColor=none;labelBorderColor=none;strokeColor=#000000;labelBackgroundColor=none;" parent="zO5dkgNFRGk9Y2NztJr0-5" vertex="1">
          <mxGeometry y="278" width="120" height="60" as="geometry" />
        </mxCell>
        <mxCell id="wiHUEbu9_wPqcJig13ah-5" style="edgeStyle=orthogonalEdgeStyle;rounded=0;orthogonalLoop=1;jettySize=auto;html=1;entryX=0.5;entryY=0;entryDx=0;entryDy=0;fontColor=#000000;labelBorderColor=none;strokeColor=#000000;labelBackgroundColor=none;" parent="zO5dkgNFRGk9Y2NztJr0-5" source="wiHUEbu9_wPqcJig13ah-2" target="wiHUEbu9_wPqcJig13ah-4" edge="1">
          <mxGeometry relative="1" as="geometry" />
        </mxCell>
        <mxCell id="wiHUEbu9_wPqcJig13ah-7" value="N" style="text;align=center;verticalAlign=middle;resizable=0;points=[];autosize=1;strokeColor=none;fillColor=none;fontColor=#000000;labelBorderColor=none;labelBackgroundColor=none;html=1;" parent="zO5dkgNFRGk9Y2NztJr0-5" vertex="1">
          <mxGeometry x="60" y="88" width="27" height="26" as="geometry" />
        </mxCell>
        <mxCell id="wiHUEbu9_wPqcJig13ah-8" value="1" style="text;html=1;align=center;verticalAlign=middle;resizable=0;points=[];autosize=1;strokeColor=none;fillColor=none;fontColor=#000000;labelBorderColor=none;labelBackgroundColor=none;" parent="zO5dkgNFRGk9Y2NztJr0-5" vertex="1">
          <mxGeometry x="60" y="252" width="25" height="26" as="geometry" />
        </mxCell>
        <mxCell id="wiHUEbu9_wPqcJig13ah-9" value="&lt;font style=&quot;font-size: 10px;&quot;&gt;Data de Lançamento&lt;/font&gt;" style="ellipse;whiteSpace=wrap;html=1;fontColor=#000000;fillColor=none;labelBorderColor=none;strokeColor=#000000;labelBackgroundColor=none;" parent="zO5dkgNFRGk9Y2NztJr0-5" vertex="1">
          <mxGeometry x="181" width="74" height="52" as="geometry" />
        </mxCell>
        <mxCell id="wiHUEbu9_wPqcJig13ah-16" style="edgeStyle=orthogonalEdgeStyle;rounded=0;orthogonalLoop=1;jettySize=auto;html=1;entryX=0.007;entryY=0.585;entryDx=0;entryDy=0;entryPerimeter=0;endArrow=none;endFill=0;fontColor=#000000;labelBorderColor=none;strokeColor=#000000;labelBackgroundColor=none;" parent="zO5dkgNFRGk9Y2NztJr0-5" source="wiHUEbu9_wPqcJig13ah-3" target="wiHUEbu9_wPqcJig13ah-9" edge="1">
          <mxGeometry relative="1" as="geometry">
            <mxPoint x="155" y="30" as="targetPoint" />
          </mxGeometry>
        </mxCell>
        <mxCell id="wiHUEbu9_wPqcJig13ah-17" style="edgeStyle=orthogonalEdgeStyle;rounded=0;orthogonalLoop=1;jettySize=auto;html=1;entryX=1;entryY=0.5;entryDx=0;entryDy=0;endArrow=none;endFill=0;fontColor=#000000;labelBorderColor=none;strokeColor=#000000;labelBackgroundColor=none;" parent="zO5dkgNFRGk9Y2NztJr0-5" source="wiHUEbu9_wPqcJig13ah-10" target="wiHUEbu9_wPqcJig13ah-3" edge="1">
          <mxGeometry relative="1" as="geometry" />
        </mxCell>
        <mxCell id="wiHUEbu9_wPqcJig13ah-10" value="Nome" style="ellipse;whiteSpace=wrap;html=1;fontColor=#000000;fillColor=none;labelBorderColor=none;strokeColor=#000000;labelBackgroundColor=none;" parent="zO5dkgNFRGk9Y2NztJr0-5" vertex="1">
          <mxGeometry x="181" y="62" width="74" height="52" as="geometry" />
        </mxCell>
        <mxCell id="wiHUEbu9_wPqcJig13ah-11" value="Nome" style="ellipse;whiteSpace=wrap;html=1;fontColor=#000000;fillColor=none;labelBorderColor=none;strokeColor=#000000;labelBackgroundColor=none;" parent="zO5dkgNFRGk9Y2NztJr0-5" vertex="1">
          <mxGeometry x="181" y="282" width="74" height="52" as="geometry" />
        </mxCell>
        <mxCell id="wiHUEbu9_wPqcJig13ah-14" style="edgeStyle=orthogonalEdgeStyle;rounded=0;orthogonalLoop=1;jettySize=auto;html=1;entryX=0;entryY=0.5;entryDx=0;entryDy=0;strokeColor=#000000;endArrow=none;endFill=0;fontColor=#000000;labelBorderColor=none;labelBackgroundColor=none;" parent="zO5dkgNFRGk9Y2NztJr0-5" source="wiHUEbu9_wPqcJig13ah-4" target="wiHUEbu9_wPqcJig13ah-11" edge="1">
          <mxGeometry relative="1" as="geometry" />
        </mxCell>
        <mxCell id="zO5dkgNFRGk9Y2NztJr0-6" value="Conceitual" style="rounded=1;whiteSpace=wrap;html=1;fillColor=#f8cecc;strokeColor=#000000;fontColor=#000000;" parent="1" vertex="1">
          <mxGeometry x="149" y="163" width="82" height="32" as="geometry" />
        </mxCell>
        <mxCell id="zO5dkgNFRGk9Y2NztJr0-10" value="Físico" style="rounded=1;whiteSpace=wrap;html=1;fillColor=#f8cecc;strokeColor=#000000;fontColor=#000000;" parent="1" vertex="1">
          <mxGeometry x="693.2" y="455" width="82" height="32" as="geometry" />
        </mxCell>
        <mxCell id="zO5dkgNFRGk9Y2NztJr0-11" value="Lógico" style="rounded=1;whiteSpace=wrap;html=1;fillColor=#f8cecc;strokeColor=#000000;fontColor=#000000;" parent="1" vertex="1">
          <mxGeometry x="693.2" y="138" width="82" height="32" as="geometry" />
        </mxCell>
        <mxCell id="zO5dkgNFRGk9Y2NztJr0-43" value="Genero" style="shape=table;startSize=30;container=1;collapsible=1;childLayout=tableLayout;fixedRows=1;rowLines=0;fontStyle=1;align=center;resizeLast=1;html=1;" parent="1" vertex="1">
          <mxGeometry x="505" y="274" width="180" height="90" as="geometry" />
        </mxCell>
        <mxCell id="zO5dkgNFRGk9Y2NztJr0-44" value="" style="shape=tableRow;horizontal=0;startSize=0;swimlaneHead=0;swimlaneBody=0;fillColor=none;collapsible=0;dropTarget=0;points=[[0,0.5],[1,0.5]];portConstraint=eastwest;top=0;left=0;right=0;bottom=1;" parent="zO5dkgNFRGk9Y2NztJr0-43" vertex="1">
          <mxGeometry y="30" width="180" height="30" as="geometry" />
        </mxCell>
        <mxCell id="zO5dkgNFRGk9Y2NztJr0-45" value="PK" style="shape=partialRectangle;connectable=0;fillColor=none;top=0;left=0;bottom=0;right=0;fontStyle=1;overflow=hidden;whiteSpace=wrap;html=1;" parent="zO5dkgNFRGk9Y2NztJr0-44" vertex="1">
          <mxGeometry width="30" height="30" as="geometry">
            <mxRectangle width="30" height="30" as="alternateBounds" />
          </mxGeometry>
        </mxCell>
        <mxCell id="zO5dkgNFRGk9Y2NztJr0-46" value="IdGenero" style="shape=partialRectangle;connectable=0;fillColor=none;top=0;left=0;bottom=0;right=0;align=left;spacingLeft=6;fontStyle=5;overflow=hidden;whiteSpace=wrap;html=1;" parent="zO5dkgNFRGk9Y2NztJr0-44" vertex="1">
          <mxGeometry x="30" width="150" height="30" as="geometry">
            <mxRectangle width="150" height="30" as="alternateBounds" />
          </mxGeometry>
        </mxCell>
        <mxCell id="zO5dkgNFRGk9Y2NztJr0-47" value="" style="shape=tableRow;horizontal=0;startSize=0;swimlaneHead=0;swimlaneBody=0;fillColor=none;collapsible=0;dropTarget=0;points=[[0,0.5],[1,0.5]];portConstraint=eastwest;top=0;left=0;right=0;bottom=0;" parent="zO5dkgNFRGk9Y2NztJr0-43" vertex="1">
          <mxGeometry y="60" width="180" height="30" as="geometry" />
        </mxCell>
        <mxCell id="zO5dkgNFRGk9Y2NztJr0-48" value="" style="shape=partialRectangle;connectable=0;fillColor=none;top=0;left=0;bottom=0;right=0;editable=1;overflow=hidden;whiteSpace=wrap;html=1;" parent="zO5dkgNFRGk9Y2NztJr0-47" vertex="1">
          <mxGeometry width="30" height="30" as="geometry">
            <mxRectangle width="30" height="30" as="alternateBounds" />
          </mxGeometry>
        </mxCell>
        <mxCell id="zO5dkgNFRGk9Y2NztJr0-49" value="NomeGenero" style="shape=partialRectangle;connectable=0;fillColor=none;top=0;left=0;bottom=0;right=0;align=left;spacingLeft=6;overflow=hidden;whiteSpace=wrap;html=1;" parent="zO5dkgNFRGk9Y2NztJr0-47" vertex="1">
          <mxGeometry x="30" width="150" height="30" as="geometry">
            <mxRectangle width="150" height="30" as="alternateBounds" />
          </mxGeometry>
        </mxCell>
        <mxCell id="zO5dkgNFRGk9Y2NztJr0-124" value="Filme" style="shape=table;startSize=30;container=1;collapsible=1;childLayout=tableLayout;fixedRows=1;rowLines=0;fontStyle=1;align=center;resizeLast=1;html=1;whiteSpace=wrap;" parent="1" vertex="1">
          <mxGeometry x="801" y="199" width="180" height="150" as="geometry" />
        </mxCell>
        <mxCell id="zO5dkgNFRGk9Y2NztJr0-125" value="" style="shape=tableRow;horizontal=0;startSize=0;swimlaneHead=0;swimlaneBody=0;fillColor=none;collapsible=0;dropTarget=0;points=[[0,0.5],[1,0.5]];portConstraint=eastwest;top=0;left=0;right=0;bottom=0;html=1;" parent="zO5dkgNFRGk9Y2NztJr0-124" vertex="1">
          <mxGeometry y="30" width="180" height="30" as="geometry" />
        </mxCell>
        <mxCell id="zO5dkgNFRGk9Y2NztJr0-126" value="PK" style="shape=partialRectangle;connectable=0;fillColor=none;top=0;left=0;bottom=0;right=0;fontStyle=1;overflow=hidden;html=1;whiteSpace=wrap;" parent="zO5dkgNFRGk9Y2NztJr0-125" vertex="1">
          <mxGeometry width="60" height="30" as="geometry">
            <mxRectangle width="60" height="30" as="alternateBounds" />
          </mxGeometry>
        </mxCell>
        <mxCell id="zO5dkgNFRGk9Y2NztJr0-127" value="IdFilme" style="shape=partialRectangle;connectable=0;fillColor=none;top=0;left=0;bottom=0;right=0;align=left;spacingLeft=6;fontStyle=5;overflow=hidden;html=1;whiteSpace=wrap;" parent="zO5dkgNFRGk9Y2NztJr0-125" vertex="1">
          <mxGeometry x="60" width="120" height="30" as="geometry">
            <mxRectangle width="120" height="30" as="alternateBounds" />
          </mxGeometry>
        </mxCell>
        <mxCell id="zO5dkgNFRGk9Y2NztJr0-128" value="" style="shape=tableRow;horizontal=0;startSize=0;swimlaneHead=0;swimlaneBody=0;fillColor=none;collapsible=0;dropTarget=0;points=[[0,0.5],[1,0.5]];portConstraint=eastwest;top=0;left=0;right=0;bottom=1;html=1;" parent="zO5dkgNFRGk9Y2NztJr0-124" vertex="1">
          <mxGeometry y="60" width="180" height="30" as="geometry" />
        </mxCell>
        <mxCell id="zO5dkgNFRGk9Y2NztJr0-129" value="FK" style="shape=partialRectangle;connectable=0;fillColor=none;top=0;left=0;bottom=0;right=0;fontStyle=1;overflow=hidden;html=1;whiteSpace=wrap;" parent="zO5dkgNFRGk9Y2NztJr0-128" vertex="1">
          <mxGeometry width="60" height="30" as="geometry">
            <mxRectangle width="60" height="30" as="alternateBounds" />
          </mxGeometry>
        </mxCell>
        <mxCell id="zO5dkgNFRGk9Y2NztJr0-130" value="IdGenero" style="shape=partialRectangle;connectable=0;fillColor=none;top=0;left=0;bottom=0;right=0;align=left;spacingLeft=6;fontStyle=5;overflow=hidden;html=1;whiteSpace=wrap;" parent="zO5dkgNFRGk9Y2NztJr0-128" vertex="1">
          <mxGeometry x="60" width="120" height="30" as="geometry">
            <mxRectangle width="120" height="30" as="alternateBounds" />
          </mxGeometry>
        </mxCell>
        <mxCell id="zO5dkgNFRGk9Y2NztJr0-131" value="" style="shape=tableRow;horizontal=0;startSize=0;swimlaneHead=0;swimlaneBody=0;fillColor=none;collapsible=0;dropTarget=0;points=[[0,0.5],[1,0.5]];portConstraint=eastwest;top=0;left=0;right=0;bottom=0;html=1;" parent="zO5dkgNFRGk9Y2NztJr0-124" vertex="1">
          <mxGeometry y="90" width="180" height="30" as="geometry" />
        </mxCell>
        <mxCell id="zO5dkgNFRGk9Y2NztJr0-132" value="" style="shape=partialRectangle;connectable=0;fillColor=none;top=0;left=0;bottom=0;right=0;editable=1;overflow=hidden;html=1;whiteSpace=wrap;" parent="zO5dkgNFRGk9Y2NztJr0-131" vertex="1">
          <mxGeometry width="60" height="30" as="geometry">
            <mxRectangle width="60" height="30" as="alternateBounds" />
          </mxGeometry>
        </mxCell>
        <mxCell id="zO5dkgNFRGk9Y2NztJr0-133" value="Data de lançamento" style="shape=partialRectangle;connectable=0;fillColor=none;top=0;left=0;bottom=0;right=0;align=left;spacingLeft=6;overflow=hidden;html=1;whiteSpace=wrap;" parent="zO5dkgNFRGk9Y2NztJr0-131" vertex="1">
          <mxGeometry x="60" width="120" height="30" as="geometry">
            <mxRectangle width="120" height="30" as="alternateBounds" />
          </mxGeometry>
        </mxCell>
        <mxCell id="zO5dkgNFRGk9Y2NztJr0-134" value="" style="shape=tableRow;horizontal=0;startSize=0;swimlaneHead=0;swimlaneBody=0;fillColor=none;collapsible=0;dropTarget=0;points=[[0,0.5],[1,0.5]];portConstraint=eastwest;top=0;left=0;right=0;bottom=0;html=1;" parent="zO5dkgNFRGk9Y2NztJr0-124" vertex="1">
          <mxGeometry y="120" width="180" height="30" as="geometry" />
        </mxCell>
        <mxCell id="zO5dkgNFRGk9Y2NztJr0-135" value="" style="shape=partialRectangle;connectable=0;fillColor=none;top=0;left=0;bottom=0;right=0;editable=1;overflow=hidden;html=1;whiteSpace=wrap;" parent="zO5dkgNFRGk9Y2NztJr0-134" vertex="1">
          <mxGeometry width="60" height="30" as="geometry">
            <mxRectangle width="60" height="30" as="alternateBounds" />
          </mxGeometry>
        </mxCell>
        <mxCell id="zO5dkgNFRGk9Y2NztJr0-136" value="Nome" style="shape=partialRectangle;connectable=0;fillColor=none;top=0;left=0;bottom=0;right=0;align=left;spacingLeft=6;overflow=hidden;html=1;whiteSpace=wrap;" parent="zO5dkgNFRGk9Y2NztJr0-134" vertex="1">
          <mxGeometry x="60" width="120" height="30" as="geometry">
            <mxRectangle width="120" height="30" as="alternateBounds" />
          </mxGeometry>
        </mxCell>
        <mxCell id="7UIsEw-8ey8aMcvBIPmv-1" value="" style="shape=image;verticalLabelPosition=bottom;labelBackgroundColor=default;verticalAlign=top;aspect=fixed;imageAspect=0;image=data:image/png,iVBORw0KGgoAAAANSUhEUgAAA1gAAACzCAYAAACU9L10AAAAAXNSR0IArs4c6QAAAARnQU1BAACxjwv8YQUAAAAJcEhZcwAADsMAAA7DAcdvqGQAACadSURBVHhe7d09r9vGuujxR/db7HRGRCMwXLoiO+NcYEuGA1dutoFUobBPcZZOYVcGDAOuvBrqNoGUKoDTuDJ2ECnAOXAnVS4XjMDUgbucj6E7MyQlii+ShuKSKOn/A2hrUSKH5JAzfPgy01ooAgAAAADY2/+J/wcAAAAA7IkACwAAAABqQoAFAAAAADUhwAIAAACAmhBgAQAAAEBNCLAAAAAAoCYEWAAAAABQEwIsAAAAAKgJARYAAAAA1KS1UOLPO2m1WvEnADg/lkUiDoj6BwBwLDbnB5UCrP/966/4LwA4H3/75hsCrAaj/gEAHIPt+QGPCAIAAABATQiwAAAAAKAmBFgAAAAAUBMCLAAAAACoCQEWAAAAANSEAAsAAAAAakKABQAAcEq+fpWv8celrz/L42++kb+9+BiPAHAsBFjYQhXiH3+W599/b/oAWA7q78cvfpaPqpAHAAD7+CjP03VsbnihfhH7+EL+5nnipscBaBQCLJQzV8NUIf7slbz79EmNeCAPHuhBfVR/f3r3Sv6hCvnnlPAAANTD1LPZwYm/TFHj7sQfATRLa2HTLbFCT/oXQgdX3isxYdWz1/Kf//xRHmZL8q8fZfRTIPL3f4n/MB4HnDB9pdiySMQBUf/gfOk7WM/knTyTX/96K5Wq1KTefvZO/vctlTJQJ9vzA+5goYAq6JPg6vVUfntbEFxpdx6K/5bgCgAAAEgQYCHv4x/yTv//4LX8vx+rPYAQvbeVfn78e3n+88fSl3If/6y+0XfEXqTe9fr+hYw2vOJVLY3UNN//vPb8etG7Zo/VMnzcsAwAABxUXKft3JjFlnp2Wcep79J1qn7Puqz627n+BS4UARZyPv5hwit58PjfKj3f/fXn7+P3th7Ig2fP5JkaHsgneffqmbgqqCksgMOf5LH3TF6ppPXvnz14IPLpnbzyvi8MsqqnoadR62beIwuj8cpqfp+W83umF0Etwz+8b3jPDABw2nL1rBpn6rgXMvpZN5yhH1F8ENWnpgp+VVifVqp/gQvT4h0srPsqo+89eaWCkGfv/pJr28f/9JUy/Xjhg9cy+9ePqQDtq3x84ck/dMGenm/ye/352TuZvX24nMYU4tGCrD9Pvk8auWkU3SKTSkNNJb9O3649DvlVfecm31V9Lh4nQ1+J5R2s5qL+wflK3sHSQct38l08dunv/1R1Wlw5JXVaWd1YNl5/Vt+t6tlVfa+ZVwKWT62sluf19F/iJ6Nt61/gTNieH3AHCxlfJYwiEXFWJaehA57V4wCrIX135+NPUSH+rJ8JYtRfD//5Ws1V5N0fBbeDdGGdCq60O//22Pxe/vwftVQrldPQQVI2uFKSO3bP3q0HV9qdh2/l12f60zuZcBcLAHCrdAu97+RddvijhvtCuXr2jvzfx6aW1RVgKrjSHsq/v9bffZIwlXT1+he4LARYyLgjTlzeZt359nH0WEHySEDud19l/mf06c8/XsjzF5nhp99MwZwNmIzvvs0U1sqdb/NX8fZJ49nfC+5AJfPLB5SJO/EG+fN/aqjgAAAopZ+W+MvcqV0b0nekqiqoZ+98G9WyD8oqQGVV9+1R/wIXhgALJT7Jb/+dKSIf/ijXb98uh//MRz9LhVfg9MtPNaonjeSO3XfSLq9fjE/py3gAAFyoQ9TxwCkjwELG6pGBT7/9d8WrUPqZ7YIrcMlQ8JievbrSSO7Y/SnzLSu76QofAACX4RB1PHDaCLCQc+fHvpjXjj69kv/Qzbru7I60zV2t9We261V3Gtvm91X+67foqtx331JlAAAu1SHqeOA8EGChwEO5fmdCLBVjefL4xUf5mitMv8o8/pT28O/RdO+C4qZadd8Z+/YrVXcay/k9y/d59fXjT1ELSw9ey7/TKhIA4IIdoo4HzgEBFoo9fCszFWTpp+c+qf9dL+pI8PH3ajCtB3qmL42cpNW9T6/EVb/THfVGL8BGLRDqvjMm+xa+daeRailQ93n1OHlh93s9L72SD+T1gEceAAAX7hB1PHAGCLBQSjdR/ttfU/n1ddJi4Cf59EkN+qMa8ez1a/l1mu/v4uHbv6LgTE2jO+qNXn7Vk+h+pqa19I9Rdxpr8zPzUoPpRFGvY6oPEAAALtgh6njg1LXoaBgAIvoKLB0NNxf1DwDgGGzPD7iDBQAAAAA1IcACAAAAgJoQYAEAAABATQiwAAAAAKAmBFgAAAAAUBMCLAAAAACoSaVm2gHgXNFMe3NR/wAAjsXm/KBSgMUJSHORP0B1HD/NRv40G/nTbOQPUJ3t8cMjggAAAABQEwIsAAAAAKgJARYAAAAA1IQACwAAAABqQoAFAAAAADU5mwBr0mtJq+XJYB6PAAAAAIADO48Aa9KT7kj977+Uq3Y0amfzgXgtFZx5A8nFZvN5fhwA4LJsqidsFNUpybx7k3gE1tS17YFLQBnTGM0JsOYTGfS8aCdIBk/93RvIZGOpOpfBGxNdyXjYiUbVQQVtLccRp9UTdsm6qDz2krwt367zgWd+453V7UhV6E0G0lP79HL/XtvHOXUADmMiPXP81VG2J/MqG1JpUKcodW77NMrXy3Fp5xGUMaeqEQGWORCcrvRHM5mpv13XNYPM1N+jvnSdDQfR5Fr6M1eCcCg1hlcr7j1x4o/Y32edwdpsJN1LuZpirh6pQq/bl5Hap9VOFe/j6uNyH3eEi0vACYvrrfXhXvxlCnVKvShfL85Fnkdoa2VLMlDGNNXxAywVcTv96Gjxx6HpJXk6nZpBfw7DsfhFO1Cs3Rmq303tHw3cxsx3IYvpldQ964unCwX9/+jN+b8zpyt/px9dOPADGYdqn1L7a7SP689qUPt44LtSvpcDaDZfxnG9tT5crS78UafUj/L1cl3SeYRBGXNqjhxgTaRnXp7SwdVChp38LtFud2SY3oFwBp7Ky8BcXpT+D+f8XL3av5PKPwhlOlT7cVGpp/bxq+FUrtjJAWBHlK+X7VLOI3CqjhtgTT6ICa/cQJ5bFn5Fz1t7+nnc0qNsLpNBL/WOlyfeYFJ+UG58KXBu3hdLp702ZKaxX9YzN/sscvWLRGVjX64t7/Bbbc84H81z2PF7fsvp0tOo73rJc936973yAjtKf/VbvS/1ival1P79S8VbrDuntWU9N13hq5ZGahpvsPYIL/s7TpdlPWFjY51S4Jhl11FYbnvK1+VwkeXrpZxH2IiXkzKmIRaWKkxSauyLmZ8bhPGY3YSBa6Yz0/r+wteDG/2tB38c/zAlSUuVxvHvV/Mwgxss1pYiDBbquF3oW2vrxgs/nsZ1o7TdZdrRvIPxak5VlnUfep7NlWw7X33Sf/rRdshs+2SbFe0X1tszzkf9W5Ofy/xPplH5FSTLEX23zM/sPqGs0neX6Ufzzf++6v6dsEmrfD1X8yhajP3SUJ/Ntorz0/zEMn8aRi8jmque/MmUQynW9cSGeeWU1SlbxuePaf05SvO2yq6q9Lw2q2/bU75G87MpX/VvTt9lnUdsOmZytpQl51DGHJNeDxvWR5ttAuXCRRBn1LZCYU1yMOmdLZNbYfq7eJxRNj5Mdlw1ZDO/ZIcsPmiTdckUslWWdU96ns2VLShW+0B6e5YWjFW2Z5KPelB5mUplmXY+rWQ5M/mZzCtXUIRq0aL5rHaXivt3wiotpXQ99VdxoZddkH3SKCosj7C/100vI5qrnvwpOWEpLUM21BOpsmJ5opYe0gdCcvyUHYdl4+PvVnO67bKrOj2fzera9pSvabuWr/o3py+7D53zeYS2mg9lzHHpdbBhfbTZJlCuWgG5LaOKvk/G5Q40rWynKNkho3lldiwlOZiL0rVZ1n3p+TVXtmBUlgf4alxZwVhpe5Ye9Kt0coWOYp2fuf2lpBBSlulmhuppKRvWs+y7ymlkK59YpfxpGL18aK568qegHFKS/dOqnljOq2QoOn6yB8C28Qcvu6rTaWxW17anfM3a9r2mvz99BftQwbZL9oPTPo/QKGOaQq+fjeb0g7WTuXy50f+7cq+kDUrnnspG5ebL8uHR5TRPH1V7TruaKst6gdpX8lKVHiLbmlvdc3vev5trVad997753y2boZLfj9S4Dz3p9TLD9XvzsrWaQP1ScyRenJz23afi+/5ycHO/s00rpWA9VYISrWnaHmn4TwoanWF/xylb7b/V6glf1KmDrn3Xhzr6Zjx42XVoVbY95WvWRZevZ3sekUYZc2qOGGC1Jc6/4h25UBj3f3Bf7m4ph2efw/hTvaKDbybvf08v81x+f68XLH3QHn9ZT0VnOFZFh7KxudXmbM/ZaCSj3GAWrkB2X1E6VzIcDpfDy3ztvGSXVjX1pMH+DjTdIcqTw6J8zbrU8vW8zyNOx7muVxVHvYOVXCmYvf99x6g2uWp1I9tisk1R9z7aj56qMEotc98xLc7o6NzzHDFdefkvU/1xHX9ZT0dHngdR4NovbQqoKdtTd2pdcBUpGZb9T7Tl0VOzwBb7d9auae2jrjTY34FmO0R5ciiUr2Uut3w9x/OIU3Ou61XNUQOsJFjZvYnN5K7XTIovLiR3kkTuLy9PbJvGxlwGP+h+N1zxfbXksyg6n83U38FYwrVbtVWW9XK1r14urz79LkWXHI+9Pe33o+U6qf37h/JLagXq3GfL1J0G+ztO2SGOuWNp+rpVWz7K1zTKV+0czyNOw7mu136O+w7W8rlZdTx0PekVdUBg2t9ftcffeRJNMOrm+yuYT66jO0mZfrWW07zJtN2v+wCIOyrcTXx72b0vT4ZTmS4j86kMrzpqF1tXZVkvV0eGY729ZtLvR51PZx17e5buRzHd/8P6ciXrpNZK3/HsTWSem3AuX+JPafZp2as7DfZ3nLLS48G6nmieQ5Qn+6i27SlfE5SviXM8jzgN57pe+zh6IxedYShjfTdIHRCjrhN1YuZ5ZjCdlDldGc1uVoVkZ6h+rz+MpOvoDs/il+i8ljhdfUC5EvySuQ3Zeb7sjM5pqUDO/F7NXxfcri8m+Z1EB687U2kvO1GLBrPMvcwOVGVZL1mST2WOvT2T9M1+pPM8Tj/unM/p9uVD9uqNmibU+4z6OBt1xVHLbTrQ1PuL2XccKawHqqRlq+40jp0/wD5qqyca6BDlyT6qbnvKV8rXrHM8jzgF57pe+1hYqjDJTsJxkOq0Lx7U364f5Poq0HR/BcsOz8xQ/tuIbos/PX934Qf6x3Fz8dlmKkualVQ7UDR93MlwMqyWpaDZWOtlrU7Pv7mKm+hdk2x3Naz175BitT03NQ8a93lR1DRwWROvWmH6an8Yh5syVO1/QXY6NejO+4LyfWHntDY2gxpv96ImhpV60lg55P5eN728aK568mdTOWRZT+xSpiXKjh/b8dpBy67d6XluVue2T6N83aV81b8/fTscc8m2VMPpn0dQxjSFXh8bLf2PmmhnOhK1nOR8THrS0lc4/HFh05jzgSdOf6bK2VCmq9YuDuqi8wfYE8dPs5E/zUb+NBv5A1Rne/wc/RHBU6Qi/gJzCaP2P3mJHwAAALhQ3MGyMpFeqyvRI926JcGklZobuRnNohdx3UDCIzZFyRUqoDqOn2Yjf5qN/Gk28geozvb4IcCyNZ/L5PoHeXOjAqpU00au68r9l7/I8077qC+ZUoAC1XH8NBv502zkT7ORP0B1tscPAdaZIX+A6jh+mo38aTbyp9nIH6A62+OHd7AAAAAAoCYEWAAAAABQk0qPCALAueIRmuai/gEAHIvN+QHvYJ0Z8geojuOn2cifZiN/mo38AaqzPX54RBAAAAAAakKABQAAAAA1IcACAAAAgJoQYAEAAABATQiwAAAAAKAmBFgAAAAAUBMCLAAAAOCY5gPxWi1p9SbxiFsyn8s8/ojbc+EB1lwmPc+0bX/rOzQaZCI9necFg+d50htMKHwA3DLqn2Yjfw5uPpGB2uYmyFgO6m+vJxMVFKAGk560HEecltqm8SjcjssNsNSB3PMc6Y5m8QhcHldc3xc/GVxXZrOZjPpdVfioQGtCgQ7gFlD/NBv5c3DzgQpmna701TbXW91V9bEeRP01m42kq4ICTwW61Mo1ce+JE3/E7bjIACs5kEcz15xY41Ldl5fDoQyTYTqVxSKUcRAV6qOuo4Ks6JcAUAfqn2Yjfw5Pb3Onb8Iq8cehqocXMlX1sR7053Dsq29UrTzqyg8DQqy9dIZmmy6mV9KOR+F2XGCANZFrdSC7fiDhYirDJ/FowGhL52oqoQmyREZvBlwxA1AT6p9mI38OL9rmmj9W27yTP+1vq6BgqoIsbda/5tE2nIQLDLA68jwMZTokeke59tVLMcX5rC/X6dI8fgnV01fR1OeeFz8n7g1Whf48enY//Ry5foa88MLb2vyi58+Xz56b586T3+lHVlLz65UEfjZpAzgw6p9mI38ObT54IyP9wQ3keceMKtZ5LtF1z5F8KKuTVa24VoeWPepfZZrYfJKq95PfF723vaVu314nZ5ZryzS2y5V7r7DucxGl2rYqOa86RQtLFSZptrFv1kn8cTzitJ1d/tyK8UIFT2pb+epTubGvfyMLNwjjMUoYLFQZv3B93/xvvndT8xpH30fj/YWvfue7rvlb1SCL9KyM3PzceJpoHnq+QRDvo2o++rsoPf13sFibnW3ayNHbCs11dvlD/dNs5M+tK6xnS4RBXJ+l86OgDtWffT+p+wrmXWUaZZn+8ver84BcfVxat2+ok+NpdF2/8zRKleXK7dOlyxvPx+ZcRNlvW6nP6fOqhtDLZcP6aLNNoPEoQC/QbgHWpsLcjC8oVPT+5PrBYpz5onBeWnp+6rvVZOEiWBZs2cI+Wf5MYWubNnL0dkJznV3+UP80G/lzy1b13C6beGudrMavVX9J/mXr+n2mydX7oZokmtfaOmxIw/58YIdpbJdr57QrnItUXabCaZpDL5+NC2+mHajKl3HRS6L6WfHhlWQfI28/empe0i3lBhIOO6n5teXR03gKfyzTq/QMO/LcPCsxk89hNMaomjYAAA3Xvns//lQgV4cqZY8VJiymmVz3TeuG/stsvd9WkwSmjh0VJVKQxrJOvvlS/HidxTSVl6tMDeci1Zep5LzqRBFgAVX4T1TRsoF+F0o/f9zrRcP1e1PglLp/N1eoJJWJe6+8MdWbLwXFs23aAAA03PzLTfypQEEdqk/ok5issK7ceZq5JEnffIjr1fSQ1LFFAVNRGu27siFUtJhmj+Uqs/e5yB7LtO286sQQYAElws9RWLKpUMmLX0x1HOl2+zIajeLhECHOMdMGAMDGlgAoo0qd7NyL775Y2DTNbFmvpofj17FNXK6mbqtDIcACCk3kQ9S0kTx9lL/GVWbSc0xHifo2+zg07zhGQxjdFr9Nx0wbAABbSTAzW3vevcjqzsj9u7vXyUlQZqN8GleCdN2aHY72eFsTl6up2+pwCLCAAqumY5/K7vFVUgGoguWX/LtQt+uYaQMAYG/5btHozeZmyAc/SNQX8Zbm3NdUCcqKpknutGXeez66Ji5XU7fV4RFgAWlxP1JJr/I6WNk/VlHzjF/6PLxjpg0AwAbtK3kZdTopfceTQa4PKlWHDZI6uajhhNioa/p2Sk89n1xvDsospuk8MQup4sDifp90n08bus+6NU1crqZuq0O7yABrMki9cPcmvlRx82Y1bmDR4gpO2Ei6nideMuiO7fT7S+YZYX17eyprDeZslbS2E1UUntmf9Hz1PKNf3J5jpg1gV9Q/zUb+HF5nGMYt96n6q+tEHdiaell3OKvqsPiCpx+EMiy7e+W64qqAydGd2ep8UtM7ceVXGpTZTNMZyljHDbO++r1evnh/0O89q7+dbl8+HOOOTROXq6nb6tAWlipM0jDrbfoXDg1uh38bvfzYJum7IT/oDnqDcVie/2V9SKSEQapDvXie4zBOs6zviaL5xf1xbOrwMPudVdrI0dsMzXX6+UP902zkzzGF4yDVqW6yvXVHtfn+HZfSdaiu69LTm/ov/l1alWlioaqXlx3smkEtn5kmM9HGc4W4Ts7uS1Wmie29XJvSrnAuotWzrZpDr4ONlv5HTbQzHX1aToIDIn+A6jh+mo38aTbyp9nOMn/mA/Gcvsz8sSxKb29lVJkGF8/2+OEdLAAAAACoCQEWAAAAANSEAAsAAAAAasI7WGeG/AGq4/hpNvKn2cifZiN/gOpsjx/uYAEAAABATQiwAAAAAKAmlR4RBIBzxSM0zUX9AwA4FpvzA97BOjPkD1Adx0+zkT/NRv40G/kDVGd7/PCIIAAAAADUhAALAAAAAGpCgAUAAAAANSHAAgAAAICaEGABAAAAQE0IsIBGmUiv1ZJWq6c+AQAA4NQQYAENMul1ZaT+98dD6USjdjMfiKcDM28g83jU0nyeHwcAAJopqdN7lpdaqe8bgwAL52c+kUHPiwqnZPDU372BTJpc8qgC9U0UXcnQKrraYNKTluOIwx0xoBkKy6eeDBpdOF0Q8gfLJ0nyg9fkfYH6vlEuM8CiAD1b84GnCpiu9Eczmam/Xdc1g8zU36O+dJ3mFjyT677M3EDC2qKrFPeeOPFHAEcyGYi3LJ/iskmbjaTfdcT2YjVqRv5gjdoHfF/8ZDCnEiewL1DfN8LlBVgUoOdr0hOnr8MqfRMoND1uT6dTM+jPYThWBeQ9830TdYYLWUyvpB3/XYvO0Kx77fMFUMFnVTgFMg7VMblIyqZQgrgaGnW58nxc5A/S7svL4VCGyTBV5xFj33wzelPwOP6xUd83ygXewaIAPU8T6XX183U6uFrIsJMvXtrtjiogr+zebQKAuqgToOlQlUFrxVNbrn4JJKqCbuQLD1IcD/mDLdqdJ2JCrNlnCc0YoNjlBVgUoOdp8sE0DiFuIM8tI6j5ZCA9z8s9Z134xGj84qk3UF/Gj5qmHzNdTqO+63mp+fXKr3ZF6a9+22p50htMSn4/l8mgl3q81VPLUvZbZdOLsnM1r8yjsub58tKZAQCAQjZ16tq5ROocwBsUXOSfZ8411DlC0QnKpvpesTvXwN4WlipMchrCYKECLLV+7iII43En6GzzZ4uxr/NOFq5l5oWBa6Yz0/r+wteDG/2tB38c/zAR7yf6t8n+sj6NvwgCP/rsRt+5yXdusMgu3Sp9d5l+NN/i3yfruUp3tfyF0yT7dXZFxsn+rtbFTdZ7tSynfAzsQ68/muts82cclxmq/MgWOaeE/Gk2yrddjRd+SX4v6+x969TcuYSeLpVmUnereUTfJ+cIqzo/d75TVt8rtucayNPbyob10WabwMmgAD1h4SKIg5iCcqVcOs+z5VTZ/pAUYHpQia0mWy2DHtYLvqSwzhSyywI0W7iFy0BqbX1KlymZf8G8ygpcNS/XD/LrXVZ5XAi97miuc82fqheImob8aTbKt12t6uwkGIkCpng/UHVnbk+wrVPT5xJFAU7puYay7fykLK1dzzVQSG8nG9ZHm20Cp4IC9JRVC7C2FSyF35cWVPqr8uAk+S791cb0CwrKjfto2XKVFbhlbH9/ZvT2RXOdZf6UnSydIPKn2SjfdpW6aFk4uAt/13PFsjo1GV+2X5XV6UbJOU9JWrbnGiimt6EN+sHSJj2J2kfw5eUVba9chrl8udH/u3KvpD1T554qdpSbopfy7t/NtdLTvnvf/O+WzVBZzStJX4370JNeLzNcvzfNzKsJ4uejV8v79FGN+6h+Zlw/l51NF8Dt0+9qLhvnGdIAT9OQPxfOFxV26LPq5aBbEXRVLTnql7Q6bVun+k8271cF5xq63YD4dKP4/GSN7bkG6kKARQF6BmwKm0Qon02pcl/ubolXZp9vt62g2Wgko9xw22FO/NKs40i32z9gugAiqu5xuqZxHjcI6+tcHDUhf5DX1g2lqSBLW2+q/bB1anIB2MZxzjUu14UHWBSg5yIpbGbvf9/xKowj0STbW43cdEdqf64EpsuAkuGW+rOY9BzTF5za8eMuC+IhTFrTBHB7VN3jreqeKU9ONAz5gw2ce1E9mWqq/dB1ahhdIbZwnHONS3bBARYF6DlpP3oaF3h9ud6pI7PkrtdMim9QzeX391EBdn/bLa5KtqWfZfv7TVaPGwa/ZLssAHC74rrHnItR9zQP+QNbh65TV4/9bT8/qfPcATYuNMCiAD077St5Gd21l1G3rI8Ine+rvqo6T+Lb/Lpz6czP55Nr6ev4qkK/Wrtapl/SI7zusyK9XKW/131fOP3oOeq9zGVyXcd8ABSj7mk28gfbpOrJbe9P1VGnjrqmX6t0nW97fmJ7roF6XGCARQF6rjrDUMa+vo81U2WSYzrS8zzPDKZTPf046OxGvkQ/1xOo3+sPI+k6ujPg+KVPryWOeS8vuhp1a3tIkv6sL45Z1uTF02h5nW5fPqSvOHWeS2BWT/9eBZFmWfUz36oAd30xq76Ttjx6Gm2nvqO2T5ym13Lixl4A3IZJL6p7jPc/LMuntaGkk1DcPvIH627kTXJeEA/LelLVuePleyW3V6e6riuuCrLSdX50fqLiu5c7np/YnmugHgtLFSZpFLWTmXXQg9pxi4cTbq7y1POnDuE4KOiAV+drvo8KTfd5FXXwlwzlv93YpGncnK8K3OMRK0kz7YXfFaXv+ir9wgVQyaTXLWkuNm621aKZ9jBIdTSohijNuHnaC22yVW8HNNep50+6/ikdCptlPg16+U8Z+YPIhmba1bmEH2T6pYpZ1anbmkePvzfnDHoe6XMENd+CU4mt87Q710CW3mY2WvofNdHOdLRrOUmjTHqt7VcU3EDCE33h79TzBzgmjp9mI3+ajfxpNvIHqM72+Lm4AOvckT9AdRw/zUb+NBv502zkD1Cd7fFDP1gAAAAAUBMCLAAAAACoCQEWAAAAANSEAAsAAAAAakKABQAAAAA1qdSKIACcK1rZai7qHwDAsdicH1gHWAAAHAPNTDcb+dNs5A9Qne3xwyOCAAAAAFATAiwAAAAAqAkBFgAAAADUhAALAAAAAGpCgAUAAAAANSHAAgAAAICaEGABAADgvM0H4rVa0vIGMo9HLc3n+XHAHgiwAAA4lPlEBj0vOtFLBq8ngwmnd80yl4nKJ5M/vUk8DrdjIj1zLPTUpyOY9KTlOOIcK/266PVgf20MAiwAAA5hMhDP6Up/NBNxffF9Nbhq/Gwk/a4j3oAgqxFUENzzHOnqfMLlcO+JE38E9kWABQDAQXwW8QMZhwuZTocyHKphupAw0FGWirPe/85jSkc2H3jSUkHwaOaaABgXoDOUxWIhi+mVtONRwL4IsAAAOAR1IjcdXkkncxbXfvRUTIg1+yyhGYPjmMh1fyauCoLDxVSGT+LRAGCJAAsAgCbgEaUj68jzMDRBMHcyGiBulMI8Ohu/u7j23mLp7d65TAa91HuOnprHpPzucNL4RdG7S/PoXbz0O5NeWdpVl9cmjT3MJwPpeallitMpfP2z8rZP0lmlobd/r2T7F/3WU/lQ86ofxwIAgBNwnlVWuAhcMevmBmE87jSdXf6MfbNO4o/jEaetufkzXvh6O4uvPqWEwcLVx4Xvm/9F3IWvPvuuG+WL+rvokBn70fGU/308uIE66lLidHL5PI7Hq8F11Xy2pV1leW3T2GTD/hoGq22gly9KJ/pbD7lJKm77VTruMp1k/XLbPVne1G/N/LO/awi9rDYIsAAAJ8G2gmum8SJITib81cmIb3Um1UznkT8pBFgHsjnASvIgfYQsT+RzQVFy0p6dV5KGGnYOsFRw4AeLcebQLE274vJapbFJ2f6a3ibZdEq3V4V1SabJBUihWoRoXqtJkgtLlkHkEenlt8EjggAAHMr8i7wfjWRkhqSVupncfP69+FEd4NK5gYTDztpjm8v3Fm++rD1ONvkwMv+7wXPpmE+xdkeGYRBNs6tt70yWsVjeymlYSLaJPx7m01Hpq+BHGcmHotbdbbb9dV+VZCqdl9lHbNvSeR5t+1FhIueJAAsAgENpX8k0enrEDGE4Nk21z0Z96Ton3g8PcBvu382csCvtu3I//rgyly83+n9Xnj7KTVGdfkdKvyvU60XD9XsTSJTaeXlTbNPY2Wqb3Ct5wdO5F4VyN18KrvBYb3s1nw/xOqSHZH2WQVlbrl7qyG4mfSd+76og+VNGgAUAwJG09ZX1aShRS+0jeVP3m+0AKppHjTs4jnS7/fiuc/rOcx1uO41QPptZ3Ze7W2LO2ed62jCdLdchPRSsT2co4TgQ352pabriOC3TgMa53MknwAIA4Kja8uhpdBW5rpMcAPuZ9Jy4U/Co77rkrvPC9lHDDW4/DUeiG1Q3UnSDKs0tu8VlxZUgvR7ZIdPXWLtzZfoCXIShjKNb+dJ1vNpbUDwGAiwAAI4sjC4zA6isLXfNs2sz2f86xerRuuCX/DtS9ThEGtu2yVx+fx+VPfe33eLaaM9t325LZziNO12vI/+OjwALAIBbN5eB50mv6PmX+UDeRO+hi/9k7dV8ABY6T0yLDTJ6M1BHXIru18mJGmHYz3zZmMPt2TUN/Xjhaj3n8UtQ2TtRy23SzT9+N59cS18n5AbyfM+ip3Tbx3SfV6v0J9IreBzwnC40EWABAHDr9BXemTrJcUyHml7y8rfuZDM+8XP9sQyJr45Kd1C7fDH/TfLW/pvVuAHNkDRa53n0PuOsL47u4NYcY/odJ3WMub5pUGY3yWO7SSMMOv91Z8COdOOLIfurIY0bvZ66w+CWOFGklG/gI9VSYNdZL3sck1B0B23vG2hJOmbbR50YR8dN1Emx0+3Lh/SdKfM4YOp3anmixdk/2GuEBQAAJ+D0q6xwEY6DVGed0aA7GA2yHdScoHPIn6TT59KhoZ2g7kIvfzNt6QersC+oeJrC/ND9LqWPsaSfuTh/d+0HSwmDVEe5atDH6jjpU6usHyjL5bVKI0ulueowWK3nhnJE93nlru3fuoPffB9cRuVtX5KOWafMr9U6Bpl8clV65WtwXHoZbbT0P2oiAAAaTV8FpcpqLvKn2cgfoDrb44dHBAEAAACgJgRYAAAAAFATAiwAAAAAqAkBFgAAAADUhAALAAAAAGpCgAUAAAAANaGZdgDASdDN5AIAcAw2IRMBFgAAAADUhEcEAQAAAKAmBFgAAAAAUBMCLAAAAACoCQEWAAAAANSEAAsAAAAAakKABQAAAAA1IcACAAAAgJoQYAEAAABATQiwAAAAAKAmBFgAAAAAUBMCLAAAAACoCQEWAAAAANRC5P8DXPbafY0BLGUAAAAASUVORK5CYII=;" vertex="1" parent="1">
          <mxGeometry x="431" y="513" width="573.85" height="120" as="geometry" />
        </mxCell>
        <mxCell id="7UIsEw-8ey8aMcvBIPmv-2" value="" style="edgeStyle=entityRelationEdgeStyle;fontSize=12;html=1;endArrow=ERoneToMany;rounded=0;exitX=1;exitY=0.5;exitDx=0;exitDy=0;entryX=0;entryY=0.5;entryDx=0;entryDy=0;" edge="1" parent="1" source="zO5dkgNFRGk9Y2NztJr0-44" target="zO5dkgNFRGk9Y2NztJr0-128">
          <mxGeometry width="100" height="100" relative="1" as="geometry">
            <mxPoint x="701" y="374" as="sourcePoint" />
            <mxPoint x="801" y="274" as="targetPoint" />
          </mxGeometry>
        </mxCell>
      </root>
    </mxGraphModel>
  </diagram>
</mxfile>
